<svg width="45" height="45" viewBox="0 0 45 45" fill="none" xmlns="http://www.w3.org/2000/svg">
<path d="M42.5384 -1.23615e-05L22.7373 19.8114L25.199 22.2744L45.0001 2.46296L42.5384 -1.23615e-05Z" fill="#FFDDD2"/>
<path d="M24.0865 20.9224C20.7764 17.6105 13.224 19.9707 6.88905 26.3089C3.95939 29.2401 1.75264 32.59 0.687309 35.7116C-0.454115 39.0615 -0.168759 41.8404 1.50533 43.4963C2.49456 44.4861 3.90232 45 5.57641 45C6.69881 45 7.95438 44.7716 9.30506 44.3148C12.444 43.2489 15.7731 41.041 18.7028 38.1098C25.0377 31.7716 27.3966 24.2152 24.0865 20.9034V20.9224ZM20.8905 26.6706C19.6159 29.0498 17.4853 31.7906 14.879 34.3982C12.2728 37.0058 9.53335 39.1376 7.15538 40.4129C5.21496 41.4597 4.09256 41.612 3.55989 41.5168C3.31258 40.3177 5.21496 35.8448 11.0172 30.0395C16.2107 24.8433 20.3388 22.7877 22.0129 22.5783C22.0129 22.5783 22.2412 24.1581 20.8905 26.6896V26.6706ZM8.23973 27.6603C11.9874 23.9107 16.3248 21.6076 19.4637 21.3602C16.496 22.6544 12.8054 25.5476 9.66651 28.6881C6.14712 32.2094 2.95113 36.3968 1.94288 39.5183C1.94288 38.5856 2.09507 37.5198 2.49456 36.3397C3.46477 33.4846 5.50031 30.4012 8.23973 27.6603ZM17.3711 36.7774C14.6317 39.5183 11.5499 41.5549 8.6963 42.5256C7.63097 42.8873 6.67979 43.0395 5.80469 43.0586C6.4515 42.8492 7.19343 42.5446 8.0495 42.0878C10.5797 40.7364 13.4903 38.4714 16.2107 35.7496C18.9311 33.0278 21.1949 30.1157 22.5456 27.5842C23.1353 26.4612 23.4777 25.5476 23.687 24.7672C23.8202 27.9268 21.4232 32.7233 17.3521 36.7965L17.3711 36.7774Z" fill="#E29578"/>
</svg>
