<svg width="45" height="45" viewBox="0 0 45 45" fill="none" xmlns="http://www.w3.org/2000/svg">
<g clip-path="url(#clip0_158_798)">
<path d="M43.8941 7.46817C45.3594 5.75423 45.3594 2.97538 43.8941 1.26144C42.4288 -0.452497 40.0531 -0.452497 38.5878 1.26144L22.6691 19.8816C21.2038 21.5956 21.2038 24.3744 22.6691 26.0883C24.1344 27.8023 26.5101 27.8023 27.9753 26.0883L43.8941 7.46817Z" fill="#FFDDD2"/>
<path d="M40.0222 21.593H20.0111L0 21.7393C0.0250139 29.0247 2.97665 35.5202 7.50417 39.8212V42.1034C7.50417 43.7127 8.62979 45.0293 10.0056 45.0293H30.0167C31.3924 45.0293 32.5181 43.7127 32.5181 42.1034V39.8212C37.0706 35.5202 40.0222 28.937 40.0222 21.6223V21.593Z" fill="#E29578"/>
</g>
<defs>
<clipPath id="clip0_158_798">
<rect width="45" height="45" fill="white"/>
</clipPath>
</defs>
</svg>
