<svg width="1216" height="447" viewBox="0 0 1216 447" fill="none" xmlns="http://www.w3.org/2000/svg">
<path d="M143.025 394.152C147.222 394.152 150.624 390.767 150.624 386.592C150.624 382.416 147.222 379.031 143.025 379.031C138.829 379.031 135.427 382.416 135.427 386.592C135.427 390.767 138.829 394.152 143.025 394.152Z" fill="white"/>
<path d="M353.606 335.828C357.803 335.828 361.205 332.443 361.205 328.268C361.205 324.092 357.803 320.707 353.606 320.707C349.41 320.707 346.008 324.092 346.008 328.268C346.008 332.443 349.41 335.828 353.606 335.828Z" fill="white"/>
<path d="M161.478 325.027H20.3675C10.7757 325.027 3 332.764 3 342.309V426.555C3 436.099 10.7757 443.836 20.3675 443.836H161.478C171.07 443.836 178.846 436.099 178.846 426.555V342.309C178.846 332.764 171.07 325.027 161.478 325.027Z" stroke="white" stroke-width="5"/>
<path d="M89.8374 325.027V223.5C89.8374 218.917 91.6672 214.521 94.9243 211.28C98.1813 208.04 102.599 206.219 107.205 206.219H372.059C376.665 206.219 381.083 208.04 384.34 211.28C387.597 214.521 389.427 218.917 389.427 223.5V426.555C389.427 431.138 387.597 435.533 384.34 438.774C381.083 442.015 376.665 443.836 372.059 443.836H146.282M296.076 204.059V20.4458C296.076 15.8625 297.906 11.467 301.163 8.2261C304.42 4.98525 308.838 3.16455 313.444 3.16455L899.597 3.16455C904.203 3.16455 908.621 4.98525 911.878 8.2261C915.135 11.467 916.965 15.8625 916.965 20.4458V132.774M822.876 411.433H391.598" stroke="white" stroke-width="5"/>
<path d="M1186.16 134.934H823.614C814.022 134.934 806.247 142.671 806.247 152.215V394.152C806.247 403.696 814.022 411.433 823.614 411.433H1186.16C1195.75 411.433 1203.53 403.696 1203.53 394.152V152.215C1203.53 142.671 1195.75 134.934 1186.16 134.934Z" stroke="white" stroke-width="5"/>
<path d="M505.572 442.572H718.916M800.819 442.572H1213" stroke="white" stroke-width="5" stroke-linecap="round"/>
</svg>
