<svg width="279" height="84" viewBox="0 0 279 84" fill="none" xmlns="http://www.w3.org/2000/svg">
<path d="M65.3842 28.16H56.7442V40.576H65.1282C68.7762 40.576 70.6962 37.248 70.6962 34.368C70.6962 31.616 68.9042 28.16 65.3842 28.16ZM80.0402 34.112C79.8482 39.872 76.6482 45.376 70.1202 47.296L77.2882 57.6C78.5682 59.52 77.7362 62.4 75.5602 63.68C73.5122 64.896 70.6962 64.32 69.4802 62.4L61.0322 48.448H56.7442V59.968C56.7442 62.336 54.6322 64.32 52.0722 64.32C49.6402 64.32 47.4002 62.272 47.4002 59.968V24.704C47.4642 22.08 49.0642 19.904 51.8802 19.904H65.3842C75.2402 19.904 79.9122 26.944 80.0402 34.112ZM92.6127 46.4H105.541C105.093 42.752 102.597 40.96 99.2687 40.96C95.9407 40.96 93.3807 42.624 92.6127 46.4ZM110.661 55.936C112.325 57.856 111.685 60.608 109.509 61.888C106.501 63.872 102.725 64.576 99.2047 64.576C90.6287 64.576 83.5887 58.368 83.5887 48.96C83.5887 39.552 90.6287 33.536 99.2047 33.536C107.717 33.536 114.501 39.808 114.501 49.216C114.501 50.816 113.157 51.968 111.749 51.968H92.4847C92.9327 55.424 96.7087 56.896 99.8447 56.896C101.637 56.896 103.173 56.768 105.029 55.488C107.077 54.08 109.381 54.464 110.661 55.936ZM127.489 49.152C127.489 53.312 130.945 55.936 134.785 55.936C136.385 55.936 137.921 55.488 139.201 54.784C140.801 53.888 143.425 53.504 145.025 55.104C146.817 56.896 146.561 60.16 144.449 61.632C141.761 63.552 138.369 64.576 134.785 64.576C126.209 64.576 118.401 58.56 118.401 49.152V48.96C118.401 39.552 126.209 33.536 134.785 33.536C138.369 33.536 141.761 34.56 144.449 36.48C146.561 37.952 146.817 41.216 145.025 43.008C143.425 44.608 140.801 44.224 139.201 43.328C137.921 42.624 136.385 42.176 134.785 42.176C130.945 42.176 127.489 44.8 127.489 48.96V49.152ZM150.91 23.04C150.91 20.096 153.47 17.856 156.478 17.856C159.486 17.856 161.918 20.096 161.918 23.04C161.918 25.984 159.486 28.288 156.478 28.288C153.47 28.288 150.91 25.984 150.91 23.04ZM160.958 37.76V60.352C160.958 62.592 158.91 64.32 156.478 64.32C154.11 64.32 152.062 62.528 151.998 60.352V37.76C152.062 35.584 154.11 33.792 156.478 33.792C158.91 33.792 160.958 35.52 160.958 37.76ZM187.194 28.16H178.682V40.576H186.938C190.586 40.576 192.506 37.248 192.506 34.368C192.506 31.616 190.714 28.16 187.194 28.16ZM169.338 59.968V24.704C169.402 22.08 171.002 19.904 173.818 19.904H187.386C197.434 19.904 201.914 27.136 201.914 34.368C201.914 41.664 197.434 48.768 187.386 48.768H178.682V59.968C178.682 62.336 176.57 64.32 174.01 64.32C171.578 64.32 169.338 62.272 169.338 59.968ZM206.098 23.04C206.098 20.096 208.658 17.856 211.666 17.856C214.674 17.856 217.106 20.096 217.106 23.04C217.106 25.984 214.674 28.288 211.666 28.288C208.658 28.288 206.098 25.984 206.098 23.04ZM216.146 37.76V60.352C216.146 62.592 214.098 64.32 211.666 64.32C209.298 64.32 207.25 62.528 207.186 60.352V37.76C207.25 35.584 209.298 33.792 211.666 33.792C214.098 33.792 216.146 35.52 216.146 37.76ZM231.302 49.152C231.302 53.312 234.758 55.936 238.598 55.936C240.198 55.936 241.734 55.488 243.014 54.784C244.614 53.888 247.238 53.504 248.838 55.104C250.63 56.896 250.374 60.16 248.262 61.632C245.574 63.552 242.182 64.576 238.598 64.576C230.022 64.576 222.214 58.56 222.214 49.152V48.96C222.214 39.552 230.022 33.536 238.598 33.536C242.182 33.536 245.574 34.56 248.262 36.48C250.374 37.952 250.63 41.216 248.838 43.008C247.238 44.608 244.614 44.224 243.014 43.328C241.734 42.624 240.198 42.176 238.598 42.176C234.758 42.176 231.302 44.8 231.302 48.96V49.152Z" fill="#83C5BE"/>
<path d="M42 84C30.8609 84 20.178 79.575 12.3015 71.6985C4.42499 63.822 -3.09869e-07 53.1391 0 42C3.09869e-07 30.8609 4.42499 20.178 12.3015 12.3015C20.178 4.42499 30.8609 -1.32832e-07 42 0V8.97981C33.2425 8.97981 24.8437 12.4587 18.6512 18.6512C12.4587 24.8437 8.97981 33.2425 8.97981 42C8.97981 50.7575 12.4587 59.1563 18.6512 65.3488C24.8437 71.5413 33.2425 75.0202 42 75.0202V84Z" fill="#E29578"/>
<path d="M42 68C35.1044 68 28.4912 65.208 23.6152 60.2383C18.7393 55.2686 16 48.5282 16 41.5C16 34.4718 18.7393 27.7314 23.6152 22.7617C28.4912 17.792 35.1044 15 42 15V41.5L42 68Z" fill="#E29578"/>
<ellipse cx="32.5" cy="25" rx="3.5" ry="4" fill="white"/>
</svg>
