<svg width="47" height="47" viewBox="0 0 47 47" fill="none" xmlns="http://www.w3.org/2000/svg">
<path fill-rule="evenodd" clip-rule="evenodd" d="M42.593 0H4.69482C2.27355 0 0.28772 1.97183 0.28772 4.38661V42.1134C0.28772 44.5234 2.26877 46.5 4.69482 46.5H15.0594V29.9585H9.99673C9.53257 29.9585 9.15454 29.5775 9.15454 29.1155V24.0525C9.15454 23.5905 9.53257 23.2095 9.99673 23.2095H15.0594V15.6222C15.0594 10.9642 18.8348 7.18719 23.4955 7.18719H29.4004C29.8645 7.18719 30.2426 7.56822 30.2426 8.03022V13.0932C30.2426 13.5552 29.8645 13.9362 29.4004 13.9362H25.1799C23.3185 13.9362 21.8064 15.446 21.8064 17.3083V23.2095H28.8932C29.7066 23.2095 30.3335 23.9192 30.233 24.7289L29.7258 28.7726C29.6396 29.4489 29.0654 29.9585 28.3859 29.9585H21.8064V46.5H42.593C45.0142 46.5 47 44.5282 47 42.1134V4.38661C47 1.9766 45.019 0 42.593 0Z" fill="white"/>
</svg>
