<svg width="48" height="47" viewBox="0 0 48 47" fill="none" xmlns="http://www.w3.org/2000/svg">
<path fill-rule="evenodd" clip-rule="evenodd" d="M23.865 18.084C20.9715 18.084 18.6155 20.4293 18.6155 23.3145C18.6155 26.1996 20.9715 28.5401 23.865 28.5401C26.7585 28.5401 29.1146 26.1948 29.1146 23.3145C29.1146 20.4341 26.7585 18.084 23.865 18.084Z" fill="white"/>
<path fill-rule="evenodd" clip-rule="evenodd" d="M31.202 10.7715H16.4994C13.6011 10.7715 11.2499 13.1121 11.2499 15.9972V30.6329C11.2499 33.5181 13.6011 35.8586 16.4994 35.8586H31.202C34.1003 35.8586 36.4516 33.5133 36.4516 30.6329V15.9972C36.4516 13.1121 34.1003 10.7715 31.202 10.7715ZM23.8651 31.1536C19.5177 31.1536 15.9908 27.6427 15.9908 23.3151C15.9908 18.9874 19.5177 15.4717 23.8651 15.4717C28.2126 15.4717 31.7395 18.9874 31.7395 23.3151C31.7395 27.6427 28.2126 31.1536 23.8651 31.1536ZM32.2673 16.5178C31.3988 16.5178 30.6934 15.8157 30.6934 14.9511C30.6934 14.0865 31.3988 13.3843 32.2673 13.3843C33.1358 13.3843 33.8412 14.0865 33.8412 14.9511C33.8412 15.8157 33.1358 16.5178 32.2673 16.5178Z" fill="white"/>
<path fill-rule="evenodd" clip-rule="evenodd" d="M42.8527 0H4.84861C2.42057 0 0.429199 1.97755 0.429199 4.39933V42.2307C0.429199 44.6477 2.41577 46.63 4.84861 46.63H42.8527C45.2808 46.63 47.2721 44.6525 47.2721 42.2307V4.39933C47.2721 1.98232 45.2855 0 42.8527 0ZM39.0811 31.1535C39.0811 35.1946 35.7893 38.4714 31.7298 38.4714H15.9763C11.9168 38.4714 8.62503 35.1946 8.62503 31.1535V15.4717C8.62503 11.4306 11.9168 8.1538 15.9763 8.1538H31.7298C35.7893 8.1538 39.0811 11.4306 39.0811 15.4717V31.1535Z" fill="white"/>
</svg>
