<svg width="245" height="76" viewBox="0 0 245 76" fill="none" xmlns="http://www.w3.org/2000/svg">
<path d="M61.464 23.176H51.352V38.6H61.208C66.136 38.6 68.12 34.696 68.12 30.92C68.12 27.208 66.2 23.176 61.464 23.176ZM63.768 44.552L71.832 55.88C72.856 57.288 72.728 59.784 71.064 60.808C69.592 61.704 67.48 61.448 66.392 59.912L56.344 44.808H51.352V57.864C51.352 59.72 49.816 61.32 47.832 61.32C46.04 61.32 44.568 59.72 44.568 57.864V20.616C44.568 18.312 46.104 16.904 48.152 16.904H61.72C71.192 16.904 75.16 23.88 75.16 30.92C75.16 37.384 71.896 43.656 63.768 44.552ZM86.0925 43.592H103.437C102.797 38.92 99.4045 36.232 94.9245 36.232C90.3165 36.232 86.7325 38.984 86.0925 43.592ZM109.901 45.384C109.901 47.112 108.493 48.392 106.893 48.392H86.0925C86.7325 53 90.4445 55.88 95.2445 55.88C98.3805 55.88 100.173 54.792 102.349 53C103.437 52.104 105.229 51.656 106.573 52.744C107.789 53.704 107.853 55.688 106.701 56.904C103.693 60.04 99.3405 61.64 94.9245 61.64C86.4125 61.64 79.5645 55.432 79.5645 45.96C79.5645 36.488 86.4125 30.472 94.9245 30.472C103.245 30.472 109.645 36.232 109.901 45.384ZM114.752 46.088C114.752 36.616 122.112 30.472 130.688 30.472C134.144 30.472 137.28 31.432 139.84 33.224C141.248 34.184 141.568 36.04 140.608 37.64C139.712 39.112 137.472 39.176 136.064 38.344C134.528 37.448 132.608 36.872 130.688 36.872C125.696 36.872 121.28 40.52 121.28 46.088C121.28 51.656 125.696 55.24 130.688 55.24C132.608 55.24 134.528 54.664 136.064 53.768C137.472 52.936 139.712 53 140.608 54.472C141.568 56.072 141.248 57.928 139.84 58.888C137.28 60.68 134.144 61.64 130.688 61.64C122.112 61.64 114.752 55.56 114.752 46.088ZM146.889 19.016C146.889 21.384 148.937 23.176 151.305 23.176C153.737 23.176 155.657 21.384 155.657 19.016C155.657 16.648 153.737 14.856 151.305 14.856C148.937 14.856 146.889 16.648 146.889 19.016ZM154.633 57.992C154.633 59.784 153.161 61.32 151.241 61.32C149.449 61.32 148.041 59.784 148.041 57.992V34.12C148.041 32.328 149.449 30.792 151.241 30.792C153.161 30.792 154.633 32.328 154.633 34.12V57.992ZM182.167 23.176H171.415V38.6H181.911C186.839 38.6 188.951 34.696 188.951 30.92C188.951 27.208 186.903 23.176 182.167 23.176ZM171.415 44.808V57.864C171.415 59.72 169.879 61.32 167.895 61.32C166.103 61.32 164.631 59.72 164.631 57.864V20.616C164.631 18.312 166.167 16.904 168.215 16.904H182.295C191.831 16.904 195.735 23.88 195.735 30.92C195.735 37.96 191.831 44.808 182.295 44.808H171.415ZM201.139 19.016C201.139 21.384 203.187 23.176 205.555 23.176C207.987 23.176 209.907 21.384 209.907 19.016C209.907 16.648 207.987 14.856 205.555 14.856C203.187 14.856 201.139 16.648 201.139 19.016ZM208.883 57.992C208.883 59.784 207.411 61.32 205.491 61.32C203.699 61.32 202.291 59.784 202.291 57.992V34.12C202.291 32.328 203.699 30.792 205.491 30.792C207.411 30.792 208.883 32.328 208.883 34.12V57.992ZM216.065 46.088C216.065 36.616 223.425 30.472 232.001 30.472C235.457 30.472 238.593 31.432 241.153 33.224C242.561 34.184 242.881 36.04 241.921 37.64C241.025 39.112 238.785 39.176 237.377 38.344C235.841 37.448 233.921 36.872 232.001 36.872C227.009 36.872 222.593 40.52 222.593 46.088C222.593 51.656 227.009 55.24 232.001 55.24C233.921 55.24 235.841 54.664 237.377 53.768C238.785 52.936 241.025 53 241.921 54.472C242.881 56.072 242.561 57.928 241.153 58.888C238.593 60.68 235.457 61.64 232.001 61.64C223.425 61.64 216.065 55.56 216.065 46.088Z" fill="white"/>
<path d="M37 76C27.187 76 17.7759 72.1018 10.837 65.1629C3.8982 58.2241 -2.7298e-07 48.813 0 39C2.7298e-07 29.187 3.8982 19.7759 10.837 12.837C17.7759 5.8982 27.187 2 37 2V9.91078C29.2851 9.91078 21.8861 12.9755 16.4308 18.4308C10.9755 23.8861 7.91078 31.2851 7.91078 39C7.91078 46.7149 10.9755 54.1139 16.4308 59.5692C21.8861 65.0245 29.2851 68.0892 37 68.0892V76Z" fill="white"/>
<path d="M37 62C30.9 62 25.0499 59.5241 20.7365 55.117C16.4232 50.7099 14 44.7326 14 38.5C14 32.2674 16.4232 26.2901 20.7365 21.883C25.0499 17.4759 30.9 15 37 15V38.5L37 62Z" fill="white"/>
<circle cx="29" cy="24" r="3" fill="#E29578"/>
</svg>
