<svg width="48" height="47" viewBox="0 0 48 47" fill="none" xmlns="http://www.w3.org/2000/svg">
<path fill-rule="evenodd" clip-rule="evenodd" d="M42.7601 0H4.45448C2.00234 0 0 1.99303 0 4.43378V42.5662C0 45.0022 2.00234 47 4.45448 47H42.7601C45.2074 47 47.2146 45.007 47.2146 42.5662V4.43378C47.2146 1.99303 45.2074 0 42.7601 0ZM34.2333 22.0486C33.1692 26.3716 29.0726 30.868 24.8455 29.8329C23.8008 29.5778 22.8093 29.0868 22.0935 28.3454L21.3293 31.4601C20.3184 35.5569 18.4032 37.5307 17.9437 37.9591L17.7841 37.9014C17.5616 37.2755 16.8022 34.6567 17.8034 30.6032L19.9702 21.8078C19.4527 21.0857 19.1722 19.9881 19.5107 18.6209C20.0863 16.2813 21.8806 15.4773 23.0172 15.7565C24.149 16.0309 24.8455 17.1767 24.5649 18.308L23.4864 22.6936C23.0076 24.6337 23.2059 26.3475 24.9664 26.776C27.907 27.4933 29.9432 24.2727 30.6639 21.3457C31.6747 17.2537 29.5031 13.6287 25.9337 12.7525C21.8178 11.7464 16.986 13.6672 15.8301 18.3465C15.4287 19.9785 15.7043 21.7212 16.8796 22.7851C17.0489 22.9343 17.136 23.1606 17.0876 23.3772L16.6233 25.2499C16.5314 25.6254 16.1155 25.8084 15.7769 25.6302C12.4638 23.8779 12.2607 20.1999 12.8604 17.7688C14.5678 10.851 21.5518 7.97214 27.4766 9.41637C32.6178 10.668 35.7229 16.0069 34.2284 22.063L34.2333 22.0486Z" fill="white"/>
</svg>
