<svg width="49" height="47" viewBox="0 0 49 47" fill="none" xmlns="http://www.w3.org/2000/svg">
<path fill-rule="evenodd" clip-rule="evenodd" d="M15.7504 13.7871L29.7184 33.2072H33.1765L19.2085 13.7871H15.7504Z" fill="white"/>
<path fill-rule="evenodd" clip-rule="evenodd" d="M43.6185 0H5.31288C2.86557 0 0.858398 1.99303 0.858398 4.43378V42.5662C0.858398 45.0022 2.86073 47 5.31288 47H43.6185C46.0658 47 48.073 45.007 48.073 42.5662V4.43378C48.073 1.99785 46.0707 0 43.6185 0ZM28.3688 35.8217L22.2505 27.32L14.2654 35.8217H10.6379L20.6787 25.1296L10.6379 11.1687H20.5577L26.2988 19.1457L33.7954 11.1687H37.4229L27.8755 21.3361L38.2935 35.8217H28.3737H28.3688Z" fill="white"/>
</svg>
