<svg width="121" height="62" viewBox="0 0 121 62" fill="none" xmlns="http://www.w3.org/2000/svg">
<path d="M1.53158 10.194C0.334529 10.882 -0.0780869 12.4102 0.609979 13.6073C1.29804 14.8043 2.82623 15.217 4.02328 14.5289L1.53158 10.194ZM108.031 61.0135C109.296 61.5665 110.77 60.9892 111.323 59.724L120.334 39.1075C120.887 37.8424 120.31 36.3685 119.045 35.8155C117.78 35.2625 116.306 35.8398 115.753 37.1049L107.743 55.4307L89.4167 47.4204C88.1516 46.8674 86.6777 47.4447 86.1247 48.7098C85.5717 49.975 86.149 51.4489 87.4141 52.0018L108.031 61.0135ZM2.77743 12.3614C4.02328 14.5289 4.02237 14.5294 4.02172 14.5298C4.02187 14.5297 4.0215 14.5299 4.02179 14.5297C4.02238 14.5294 4.02405 14.5285 4.0268 14.5269C4.03229 14.5238 4.04209 14.5182 4.05614 14.5103C4.08424 14.4945 4.12935 14.4692 4.19104 14.4353C4.31444 14.3673 4.50413 14.2643 4.75679 14.1315C5.26221 13.8657 6.01901 13.4808 7.00061 13.0179C8.96485 12.0916 11.823 10.8557 15.363 9.63747C22.4576 7.19592 32.2097 4.85286 42.9536 5.15616C53.6688 5.45866 65.3658 8.39053 76.4639 16.5016C87.5714 24.6195 98.2501 38.0508 106.704 59.6345L111.36 57.811C102.64 35.5481 91.4496 21.2609 79.4142 12.4648C67.3696 3.66198 54.6496 0.484351 43.0947 0.158156C31.5685 -0.16723 21.1972 2.34185 13.736 4.90961C9.99805 6.19599 6.9702 7.50412 4.86788 8.49556C3.8162 8.99154 2.9946 9.40899 2.42993 9.70588C2.14755 9.85435 1.92928 9.97274 1.77847 10.0558C1.70306 10.0974 1.6445 10.1301 1.60322 10.1533C1.58258 10.1649 1.56625 10.1742 1.5543 10.181C1.54832 10.1844 1.54343 10.1872 1.53964 10.1894C1.53775 10.1904 1.53573 10.1916 1.53478 10.1921C1.53304 10.1931 1.53158 10.194 2.77743 12.3614Z" fill="#83C5BE"/>
</svg>
