<svg width="148" height="114" viewBox="0 0 148 114" fill="none" xmlns="http://www.w3.org/2000/svg">
<g opacity="0.5">
<mask id="path-1-inside-1_94_267" fill="white">
<path fill-rule="evenodd" clip-rule="evenodd" d="M91.182 13.5321C84.2316 5.67474 74.0616 0.718872 62.7313 0.718872C41.7828 0.718872 24.8006 17.66 24.8006 38.558C24.8006 39.0578 24.8103 39.5553 24.8296 40.0504C10.5198 45.4651 0.348206 59.2685 0.348206 75.442C0.348206 96.3154 17.2906 113.241 38.2052 113.281V113.281H109.648V113.281C109.672 113.281 109.697 113.281 109.721 113.281C130.67 113.281 147.652 96.3399 147.652 75.442C147.652 62.2955 140.931 50.7149 130.731 43.9327C132.44 40.5219 133.402 36.6733 133.402 32.6007C133.402 18.5863 122.013 7.22536 107.965 7.22536C101.534 7.22536 95.6608 9.60602 91.182 13.5321Z"/>
</mask>
<path d="M91.182 13.5321L87.4369 16.8448L90.7348 20.5731L94.4779 17.292L91.182 13.5321ZM24.8296 40.0504L26.5991 44.7268L29.9656 43.453L29.8258 39.8562L24.8296 40.0504ZM38.2052 113.281H43.2052V108.29L38.2147 108.281L38.2052 113.281ZM38.2052 113.281H33.2052V118.281H38.2052V113.281ZM109.648 113.281V118.281H114.648V113.281H109.648ZM109.648 113.281L109.657 108.281L104.648 108.272V113.281H109.648ZM130.731 43.9327L126.26 41.6925L124.279 45.6472L127.962 48.0963L130.731 43.9327ZM62.7313 5.71887C72.5717 5.71887 81.3969 10.0166 87.4369 16.8448L94.927 10.2193C87.0664 1.33288 75.5515 -4.28113 62.7313 -4.28113V5.71887ZM29.8006 38.558C29.8006 20.4328 44.5328 5.71887 62.7313 5.71887V-4.28113C39.0327 -4.28113 19.8006 14.8872 19.8006 38.558H29.8006ZM29.8258 39.8562C29.8091 39.4258 29.8006 38.993 29.8006 38.558H19.8006C19.8006 39.1226 19.8116 39.6849 19.8334 40.2447L29.8258 39.8562ZM5.34821 75.442C5.34821 61.4209 14.1638 49.4322 26.5991 44.7268L23.0601 35.374C6.8758 41.4979 -4.65179 57.1161 -4.65179 75.442H5.34821ZM38.2147 108.281C20.0459 108.247 5.34821 93.5458 5.34821 75.442H-4.65179C-4.65179 99.085 14.5353 118.236 38.1958 118.281L38.2147 108.281ZM43.2052 113.281V113.281H33.2052V113.281H43.2052ZM109.648 108.281H38.2052V118.281H109.648V108.281ZM104.648 113.281V113.281H114.648V113.281H104.648ZM109.721 108.281C109.7 108.281 109.678 108.281 109.657 108.281L109.638 118.281C109.666 118.281 109.693 118.281 109.721 118.281V108.281ZM142.652 75.442C142.652 93.5671 127.92 108.281 109.721 108.281V118.281C133.42 118.281 152.652 99.1127 152.652 75.442H142.652ZM127.962 48.0963C136.831 53.9932 142.652 64.0429 142.652 75.442H152.652C152.652 60.5481 145.031 47.4366 133.499 39.769L127.962 48.0963ZM128.402 32.6007C128.402 35.8778 127.629 38.961 126.26 41.6925L135.201 46.1728C137.25 42.0828 138.402 37.4689 138.402 32.6007H128.402ZM107.965 12.2254C119.263 12.2254 128.402 21.3591 128.402 32.6007H138.402C138.402 15.8135 124.763 2.22536 107.965 2.22536V12.2254ZM94.4779 17.292C98.0787 14.1355 102.791 12.2254 107.965 12.2254V2.22536C100.277 2.22536 93.2428 5.07648 87.8861 9.77216L94.4779 17.292Z" fill="#F8E5DD" mask="url(#path-1-inside-1_94_267)"/>
<rect x="64.7198" y="49.3587" width="18.413" height="45.113" rx="5" fill="#E29578"/>
<path d="M69.9958 24.5274C71.9977 21.9813 75.855 21.9813 77.8569 24.5274L98.5006 50.7832C101.08 54.0636 98.743 58.8736 94.5701 58.8736H53.2826C49.1097 58.8736 46.7728 54.0636 49.352 50.7832L69.9958 24.5274Z" fill="#E29578"/>
</g>
</svg>
