<svg width="45" height="45" viewBox="0 0 45 45" fill="none" xmlns="http://www.w3.org/2000/svg">
<path d="M45 18.2659C45 12.825 40.6023 8.42728 35.1614 8.42728C34.6295 8.42728 34.1386 8.5091 33.6273 8.59091C33.0136 3.74318 28.9227 0 23.9114 0C19.5136 0 15.8318 2.90455 14.5636 6.87273C13.1523 6.09546 11.5568 5.625 9.83864 5.625C4.39773 5.625 0 10.0227 0 15.4637C0 20.4137 3.68182 24.4841 8.42727 25.1591L11.25 39.3546H33.75L36.5727 27.9614C41.3386 27.2659 45 23.2159 45 18.2659Z" fill="#FFDDD2"/>
<path d="M30.2528 39.375V28.125H28.8414V39.375H23.2164V28.125H21.805V39.375H16.18V28.125H14.7687V39.375H11.2505V45H33.7505V39.375H30.2528Z" fill="#E29578"/>
</svg>
